<?xml version="1.0" encoding="utf-8" standalone="no"?>
<!DOCTYPE svg PUBLIC "-//W3C//DTD SVG 1.1//EN"
  "http://www.w3.org/Graphics/SVG/1.1/DTD/svg11.dtd">
<svg xmlns:xlink="http://www.w3.org/1999/xlink" width="750.564375pt" height="408.27125pt" viewBox="0 0 750.564375 408.27125" xmlns="http://www.w3.org/2000/svg" version="1.1">
 <metadata>
  <rdf:RDF xmlns:dc="http://purl.org/dc/elements/1.1/" xmlns:cc="http://creativecommons.org/ns#" xmlns:rdf="http://www.w3.org/1999/02/22-rdf-syntax-ns#">
   <cc:Work>
    <dc:type rdf:resource="http://purl.org/dc/dcmitype/StillImage"/>
    <dc:date>2025-01-21T11:26:35.671219</dc:date>
    <dc:format>image/svg+xml</dc:format>
    <dc:creator>
     <cc:Agent>
      <dc:title>Matplotlib v3.10.0, https://matplotlib.org/</dc:title>
     </cc:Agent>
    </dc:creator>
   </cc:Work>
  </rdf:RDF>
 </metadata>
 <defs>
  <style type="text/css">*{stroke-linejoin: round; stroke-linecap: butt}</style>
 </defs>
 <g id="figure_1">
  <g id="patch_1">
   <path d="M 0 408.27125 
L 750.564375 408.27125 
L 750.564375 0 
L 0 0 
z
" style="fill: #ffffff"/>
  </g>
  <g id="axes_1">
   <g id="patch_2">
    <path d="M 64.856875 361.036875 
L 734.456875 361.036875 
L 734.456875 28.396875 
L 64.856875 28.396875 
z
" style="fill: #ffffff"/>
   </g>
   <g id="matplotlib.axis_1">
    <g id="xtick_1"/>
    <g id="xtick_2">
     <g id="text_1">
      <!-- 1 -->
      <g style="fill: #262626" transform="translate(73.795125 378.674688) scale(0.14 -0.14)">
       <defs>
        <path id="DejaVuSans-31" d="M 794 531 
L 1825 531 
L 1825 4091 
L 703 3866 
L 703 4441 
L 1819 4666 
L 2450 4666 
L 2450 531 
L 3481 531 
L 3481 0 
L 794 0 
L 794 531 
z
" transform="scale(0.015625)"/>
       </defs>
       <use xlink:href="#DejaVuSans-31"/>
      </g>
     </g>
    </g>
    <g id="xtick_3"/>
    <g id="xtick_4"/>
    <g id="xtick_5"/>
    <g id="xtick_6">
     <g id="text_2">
      <!-- 5 -->
      <g style="fill: #262626" transform="translate(127.363125 378.674688) scale(0.14 -0.14)">
       <defs>
        <path id="DejaVuSans-35" d="M 691 4666 
L 3169 4666 
L 3169 4134 
L 1269 4134 
L 1269 2991 
Q 1406 3038 1543 3061 
Q 1681 3084 1819 3084 
Q 2600 3084 3056 2656 
Q 3513 2228 3513 1497 
Q 3513 744 3044 326 
Q 2575 -91 1722 -91 
Q 1428 -91 1123 -41 
Q 819 9 494 109 
L 494 744 
Q 775 591 1075 516 
Q 1375 441 1709 441 
Q 2250 441 2565 725 
Q 2881 1009 2881 1497 
Q 2881 1984 2565 2268 
Q 2250 2553 1709 2553 
Q 1456 2553 1204 2497 
Q 953 2441 691 2322 
L 691 4666 
z
" transform="scale(0.015625)"/>
       </defs>
       <use xlink:href="#DejaVuSans-35"/>
      </g>
     </g>
    </g>
    <g id="xtick_7"/>
    <g id="xtick_8"/>
    <g id="xtick_9"/>
    <g id="xtick_10"/>
    <g id="xtick_11">
     <g id="text_3">
      <!-- 10 -->
      <g style="fill: #262626" transform="translate(189.869375 378.674688) scale(0.14 -0.14)">
       <defs>
        <path id="DejaVuSans-30" d="M 2034 4250 
Q 1547 4250 1301 3770 
Q 1056 3291 1056 2328 
Q 1056 1369 1301 889 
Q 1547 409 2034 409 
Q 2525 409 2770 889 
Q 3016 1369 3016 2328 
Q 3016 3291 2770 3770 
Q 2525 4250 2034 4250 
z
M 2034 4750 
Q 2819 4750 3233 4129 
Q 3647 3509 3647 2328 
Q 3647 1150 3233 529 
Q 2819 -91 2034 -91 
Q 1250 -91 836 529 
Q 422 1150 422 2328 
Q 422 3509 836 4129 
Q 1250 4750 2034 4750 
z
" transform="scale(0.015625)"/>
       </defs>
       <use xlink:href="#DejaVuSans-31"/>
       <use xlink:href="#DejaVuSans-30" transform="translate(63.623047 0)"/>
      </g>
     </g>
    </g>
    <g id="xtick_12"/>
    <g id="xtick_13"/>
    <g id="xtick_14"/>
    <g id="xtick_15"/>
    <g id="xtick_16">
     <g id="text_4">
      <!-- 15 -->
      <g style="fill: #262626" transform="translate(256.829375 378.674688) scale(0.14 -0.14)">
       <use xlink:href="#DejaVuSans-31"/>
       <use xlink:href="#DejaVuSans-35" transform="translate(63.623047 0)"/>
      </g>
     </g>
    </g>
    <g id="xtick_17"/>
    <g id="xtick_18"/>
    <g id="xtick_19"/>
    <g id="xtick_20"/>
    <g id="xtick_21">
     <g id="text_5">
      <!-- 20 -->
      <g style="fill: #262626" transform="translate(323.789375 378.674688) scale(0.14 -0.14)">
       <defs>
        <path id="DejaVuSans-32" d="M 1228 531 
L 3431 531 
L 3431 0 
L 469 0 
L 469 531 
Q 828 903 1448 1529 
Q 2069 2156 2228 2338 
Q 2531 2678 2651 2914 
Q 2772 3150 2772 3378 
Q 2772 3750 2511 3984 
Q 2250 4219 1831 4219 
Q 1534 4219 1204 4116 
Q 875 4013 500 3803 
L 500 4441 
Q 881 4594 1212 4672 
Q 1544 4750 1819 4750 
Q 2544 4750 2975 4387 
Q 3406 4025 3406 3419 
Q 3406 3131 3298 2873 
Q 3191 2616 2906 2266 
Q 2828 2175 2409 1742 
Q 1991 1309 1228 531 
z
" transform="scale(0.015625)"/>
       </defs>
       <use xlink:href="#DejaVuSans-32"/>
       <use xlink:href="#DejaVuSans-30" transform="translate(63.623047 0)"/>
      </g>
     </g>
    </g>
    <g id="xtick_22"/>
    <g id="xtick_23"/>
    <g id="xtick_24"/>
    <g id="xtick_25"/>
    <g id="xtick_26">
     <g id="text_6">
      <!-- 25 -->
      <g style="fill: #262626" transform="translate(390.749375 378.674688) scale(0.14 -0.14)">
       <use xlink:href="#DejaVuSans-32"/>
       <use xlink:href="#DejaVuSans-35" transform="translate(63.623047 0)"/>
      </g>
     </g>
    </g>
    <g id="xtick_27"/>
    <g id="xtick_28"/>
    <g id="xtick_29"/>
    <g id="xtick_30"/>
    <g id="xtick_31">
     <g id="text_7">
      <!-- 30 -->
      <g style="fill: #262626" transform="translate(457.709375 378.674688) scale(0.14 -0.14)">
       <defs>
        <path id="DejaVuSans-33" d="M 2597 2516 
Q 3050 2419 3304 2112 
Q 3559 1806 3559 1356 
Q 3559 666 3084 287 
Q 2609 -91 1734 -91 
Q 1441 -91 1130 -33 
Q 819 25 488 141 
L 488 750 
Q 750 597 1062 519 
Q 1375 441 1716 441 
Q 2309 441 2620 675 
Q 2931 909 2931 1356 
Q 2931 1769 2642 2001 
Q 2353 2234 1838 2234 
L 1294 2234 
L 1294 2753 
L 1863 2753 
Q 2328 2753 2575 2939 
Q 2822 3125 2822 3475 
Q 2822 3834 2567 4026 
Q 2313 4219 1838 4219 
Q 1578 4219 1281 4162 
Q 984 4106 628 3988 
L 628 4550 
Q 988 4650 1302 4700 
Q 1616 4750 1894 4750 
Q 2613 4750 3031 4423 
Q 3450 4097 3450 3541 
Q 3450 3153 3228 2886 
Q 3006 2619 2597 2516 
z
" transform="scale(0.015625)"/>
       </defs>
       <use xlink:href="#DejaVuSans-33"/>
       <use xlink:href="#DejaVuSans-30" transform="translate(63.623047 0)"/>
      </g>
     </g>
    </g>
    <g id="xtick_32"/>
    <g id="xtick_33"/>
    <g id="xtick_34"/>
    <g id="xtick_35"/>
    <g id="xtick_36">
     <g id="text_8">
      <!-- 35 -->
      <g style="fill: #262626" transform="translate(524.669375 378.674688) scale(0.14 -0.14)">
       <use xlink:href="#DejaVuSans-33"/>
       <use xlink:href="#DejaVuSans-35" transform="translate(63.623047 0)"/>
      </g>
     </g>
    </g>
    <g id="xtick_37"/>
    <g id="xtick_38"/>
    <g id="xtick_39"/>
    <g id="xtick_40"/>
    <g id="xtick_41">
     <g id="text_9">
      <!-- 40 -->
      <g style="fill: #262626" transform="translate(591.629375 378.674688) scale(0.14 -0.14)">
       <defs>
        <path id="DejaVuSans-34" d="M 2419 4116 
L 825 1625 
L 2419 1625 
L 2419 4116 
z
M 2253 4666 
L 3047 4666 
L 3047 1625 
L 3713 1625 
L 3713 1100 
L 3047 1100 
L 3047 0 
L 2419 0 
L 2419 1100 
L 313 1100 
L 313 1709 
L 2253 4666 
z
" transform="scale(0.015625)"/>
       </defs>
       <use xlink:href="#DejaVuSans-34"/>
       <use xlink:href="#DejaVuSans-30" transform="translate(63.623047 0)"/>
      </g>
     </g>
    </g>
    <g id="xtick_42"/>
    <g id="xtick_43"/>
    <g id="xtick_44"/>
    <g id="xtick_45"/>
    <g id="xtick_46">
     <g id="text_10">
      <!-- 45 -->
      <g style="fill: #262626" transform="translate(658.589375 378.674688) scale(0.14 -0.14)">
       <use xlink:href="#DejaVuSans-34"/>
       <use xlink:href="#DejaVuSans-35" transform="translate(63.623047 0)"/>
      </g>
     </g>
    </g>
    <g id="xtick_47"/>
    <g id="xtick_48"/>
    <g id="xtick_49"/>
    <g id="xtick_50"/>
    <g id="xtick_51">
     <g id="text_11">
      <!-- 50 -->
      <g style="fill: #262626" transform="translate(725.549375 378.674688) scale(0.14 -0.14)">
       <use xlink:href="#DejaVuSans-35"/>
       <use xlink:href="#DejaVuSans-30" transform="translate(63.623047 0)"/>
      </g>
     </g>
    </g>
    <g id="text_12">
     <!-- Number of principal components -->
     <g style="fill: #262626" transform="translate(268.269375 397.74375) scale(0.16 -0.16)">
      <defs>
       <path id="DejaVuSans-4e" d="M 628 4666 
L 1478 4666 
L 3547 763 
L 3547 4666 
L 4159 4666 
L 4159 0 
L 3309 0 
L 1241 3903 
L 1241 0 
L 628 0 
L 628 4666 
z
" transform="scale(0.015625)"/>
       <path id="DejaVuSans-75" d="M 544 1381 
L 544 3500 
L 1119 3500 
L 1119 1403 
Q 1119 906 1312 657 
Q 1506 409 1894 409 
Q 2359 409 2629 706 
Q 2900 1003 2900 1516 
L 2900 3500 
L 3475 3500 
L 3475 0 
L 2900 0 
L 2900 538 
Q 2691 219 2414 64 
Q 2138 -91 1772 -91 
Q 1169 -91 856 284 
Q 544 659 544 1381 
z
M 1991 3584 
L 1991 3584 
z
" transform="scale(0.015625)"/>
       <path id="DejaVuSans-6d" d="M 3328 2828 
Q 3544 3216 3844 3400 
Q 4144 3584 4550 3584 
Q 5097 3584 5394 3201 
Q 5691 2819 5691 2113 
L 5691 0 
L 5113 0 
L 5113 2094 
Q 5113 2597 4934 2840 
Q 4756 3084 4391 3084 
Q 3944 3084 3684 2787 
Q 3425 2491 3425 1978 
L 3425 0 
L 2847 0 
L 2847 2094 
Q 2847 2600 2669 2842 
Q 2491 3084 2119 3084 
Q 1678 3084 1418 2786 
Q 1159 2488 1159 1978 
L 1159 0 
L 581 0 
L 581 3500 
L 1159 3500 
L 1159 2956 
Q 1356 3278 1631 3431 
Q 1906 3584 2284 3584 
Q 2666 3584 2933 3390 
Q 3200 3197 3328 2828 
z
" transform="scale(0.015625)"/>
       <path id="DejaVuSans-62" d="M 3116 1747 
Q 3116 2381 2855 2742 
Q 2594 3103 2138 3103 
Q 1681 3103 1420 2742 
Q 1159 2381 1159 1747 
Q 1159 1113 1420 752 
Q 1681 391 2138 391 
Q 2594 391 2855 752 
Q 3116 1113 3116 1747 
z
M 1159 2969 
Q 1341 3281 1617 3432 
Q 1894 3584 2278 3584 
Q 2916 3584 3314 3078 
Q 3713 2572 3713 1747 
Q 3713 922 3314 415 
Q 2916 -91 2278 -91 
Q 1894 -91 1617 61 
Q 1341 213 1159 525 
L 1159 0 
L 581 0 
L 581 4863 
L 1159 4863 
L 1159 2969 
z
" transform="scale(0.015625)"/>
       <path id="DejaVuSans-65" d="M 3597 1894 
L 3597 1613 
L 953 1613 
Q 991 1019 1311 708 
Q 1631 397 2203 397 
Q 2534 397 2845 478 
Q 3156 559 3463 722 
L 3463 178 
Q 3153 47 2828 -22 
Q 2503 -91 2169 -91 
Q 1331 -91 842 396 
Q 353 884 353 1716 
Q 353 2575 817 3079 
Q 1281 3584 2069 3584 
Q 2775 3584 3186 3129 
Q 3597 2675 3597 1894 
z
M 3022 2063 
Q 3016 2534 2758 2815 
Q 2500 3097 2075 3097 
Q 1594 3097 1305 2825 
Q 1016 2553 972 2059 
L 3022 2063 
z
" transform="scale(0.015625)"/>
       <path id="DejaVuSans-72" d="M 2631 2963 
Q 2534 3019 2420 3045 
Q 2306 3072 2169 3072 
Q 1681 3072 1420 2755 
Q 1159 2438 1159 1844 
L 1159 0 
L 581 0 
L 581 3500 
L 1159 3500 
L 1159 2956 
Q 1341 3275 1631 3429 
Q 1922 3584 2338 3584 
Q 2397 3584 2469 3576 
Q 2541 3569 2628 3553 
L 2631 2963 
z
" transform="scale(0.015625)"/>
       <path id="DejaVuSans-20" transform="scale(0.015625)"/>
       <path id="DejaVuSans-6f" d="M 1959 3097 
Q 1497 3097 1228 2736 
Q 959 2375 959 1747 
Q 959 1119 1226 758 
Q 1494 397 1959 397 
Q 2419 397 2687 759 
Q 2956 1122 2956 1747 
Q 2956 2369 2687 2733 
Q 2419 3097 1959 3097 
z
M 1959 3584 
Q 2709 3584 3137 3096 
Q 3566 2609 3566 1747 
Q 3566 888 3137 398 
Q 2709 -91 1959 -91 
Q 1206 -91 779 398 
Q 353 888 353 1747 
Q 353 2609 779 3096 
Q 1206 3584 1959 3584 
z
" transform="scale(0.015625)"/>
       <path id="DejaVuSans-66" d="M 2375 4863 
L 2375 4384 
L 1825 4384 
Q 1516 4384 1395 4259 
Q 1275 4134 1275 3809 
L 1275 3500 
L 2222 3500 
L 2222 3053 
L 1275 3053 
L 1275 0 
L 697 0 
L 697 3053 
L 147 3053 
L 147 3500 
L 697 3500 
L 697 3744 
Q 697 4328 969 4595 
Q 1241 4863 1831 4863 
L 2375 4863 
z
" transform="scale(0.015625)"/>
       <path id="DejaVuSans-70" d="M 1159 525 
L 1159 -1331 
L 581 -1331 
L 581 3500 
L 1159 3500 
L 1159 2969 
Q 1341 3281 1617 3432 
Q 1894 3584 2278 3584 
Q 2916 3584 3314 3078 
Q 3713 2572 3713 1747 
Q 3713 922 3314 415 
Q 2916 -91 2278 -91 
Q 1894 -91 1617 61 
Q 1341 213 1159 525 
z
M 3116 1747 
Q 3116 2381 2855 2742 
Q 2594 3103 2138 3103 
Q 1681 3103 1420 2742 
Q 1159 2381 1159 1747 
Q 1159 1113 1420 752 
Q 1681 391 2138 391 
Q 2594 391 2855 752 
Q 3116 1113 3116 1747 
z
" transform="scale(0.015625)"/>
       <path id="DejaVuSans-69" d="M 603 3500 
L 1178 3500 
L 1178 0 
L 603 0 
L 603 3500 
z
M 603 4863 
L 1178 4863 
L 1178 4134 
L 603 4134 
L 603 4863 
z
" transform="scale(0.015625)"/>
       <path id="DejaVuSans-6e" d="M 3513 2113 
L 3513 0 
L 2938 0 
L 2938 2094 
Q 2938 2591 2744 2837 
Q 2550 3084 2163 3084 
Q 1697 3084 1428 2787 
Q 1159 2491 1159 1978 
L 1159 0 
L 581 0 
L 581 3500 
L 1159 3500 
L 1159 2956 
Q 1366 3272 1645 3428 
Q 1925 3584 2291 3584 
Q 2894 3584 3203 3211 
Q 3513 2838 3513 2113 
z
" transform="scale(0.015625)"/>
       <path id="DejaVuSans-63" d="M 3122 3366 
L 3122 2828 
Q 2878 2963 2633 3030 
Q 2388 3097 2138 3097 
Q 1578 3097 1268 2742 
Q 959 2388 959 1747 
Q 959 1106 1268 751 
Q 1578 397 2138 397 
Q 2388 397 2633 464 
Q 2878 531 3122 666 
L 3122 134 
Q 2881 22 2623 -34 
Q 2366 -91 2075 -91 
Q 1284 -91 818 406 
Q 353 903 353 1747 
Q 353 2603 823 3093 
Q 1294 3584 2113 3584 
Q 2378 3584 2631 3529 
Q 2884 3475 3122 3366 
z
" transform="scale(0.015625)"/>
       <path id="DejaVuSans-61" d="M 2194 1759 
Q 1497 1759 1228 1600 
Q 959 1441 959 1056 
Q 959 750 1161 570 
Q 1363 391 1709 391 
Q 2188 391 2477 730 
Q 2766 1069 2766 1631 
L 2766 1759 
L 2194 1759 
z
M 3341 1997 
L 3341 0 
L 2766 0 
L 2766 531 
Q 2569 213 2275 61 
Q 1981 -91 1556 -91 
Q 1019 -91 701 211 
Q 384 513 384 1019 
Q 384 1609 779 1909 
Q 1175 2209 1959 2209 
L 2766 2209 
L 2766 2266 
Q 2766 2663 2505 2880 
Q 2244 3097 1772 3097 
Q 1472 3097 1187 3025 
Q 903 2953 641 2809 
L 641 3341 
Q 956 3463 1253 3523 
Q 1550 3584 1831 3584 
Q 2591 3584 2966 3190 
Q 3341 2797 3341 1997 
z
" transform="scale(0.015625)"/>
       <path id="DejaVuSans-6c" d="M 603 4863 
L 1178 4863 
L 1178 0 
L 603 0 
L 603 4863 
z
" transform="scale(0.015625)"/>
       <path id="DejaVuSans-74" d="M 1172 4494 
L 1172 3500 
L 2356 3500 
L 2356 3053 
L 1172 3053 
L 1172 1153 
Q 1172 725 1289 603 
Q 1406 481 1766 481 
L 2356 481 
L 2356 0 
L 1766 0 
Q 1100 0 847 248 
Q 594 497 594 1153 
L 594 3053 
L 172 3053 
L 172 3500 
L 594 3500 
L 594 4494 
L 1172 4494 
z
" transform="scale(0.015625)"/>
       <path id="DejaVuSans-73" d="M 2834 3397 
L 2834 2853 
Q 2591 2978 2328 3040 
Q 2066 3103 1784 3103 
Q 1356 3103 1142 2972 
Q 928 2841 928 2578 
Q 928 2378 1081 2264 
Q 1234 2150 1697 2047 
L 1894 2003 
Q 2506 1872 2764 1633 
Q 3022 1394 3022 966 
Q 3022 478 2636 193 
Q 2250 -91 1575 -91 
Q 1294 -91 989 -36 
Q 684 19 347 128 
L 347 722 
Q 666 556 975 473 
Q 1284 391 1588 391 
Q 1994 391 2212 530 
Q 2431 669 2431 922 
Q 2431 1156 2273 1281 
Q 2116 1406 1581 1522 
L 1381 1569 
Q 847 1681 609 1914 
Q 372 2147 372 2553 
Q 372 3047 722 3315 
Q 1072 3584 1716 3584 
Q 2034 3584 2315 3537 
Q 2597 3491 2834 3397 
z
" transform="scale(0.015625)"/>
      </defs>
      <use xlink:href="#DejaVuSans-4e"/>
      <use xlink:href="#DejaVuSans-75" transform="translate(74.804688 0)"/>
      <use xlink:href="#DejaVuSans-6d" transform="translate(138.183594 0)"/>
      <use xlink:href="#DejaVuSans-62" transform="translate(235.595703 0)"/>
      <use xlink:href="#DejaVuSans-65" transform="translate(299.072266 0)"/>
      <use xlink:href="#DejaVuSans-72" transform="translate(360.595703 0)"/>
      <use xlink:href="#DejaVuSans-20" transform="translate(401.708984 0)"/>
      <use xlink:href="#DejaVuSans-6f" transform="translate(433.496094 0)"/>
      <use xlink:href="#DejaVuSans-66" transform="translate(494.677734 0)"/>
      <use xlink:href="#DejaVuSans-20" transform="translate(529.882812 0)"/>
      <use xlink:href="#DejaVuSans-70" transform="translate(561.669922 0)"/>
      <use xlink:href="#DejaVuSans-72" transform="translate(625.146484 0)"/>
      <use xlink:href="#DejaVuSans-69" transform="translate(666.259766 0)"/>
      <use xlink:href="#DejaVuSans-6e" transform="translate(694.042969 0)"/>
      <use xlink:href="#DejaVuSans-63" transform="translate(757.421875 0)"/>
      <use xlink:href="#DejaVuSans-69" transform="translate(812.402344 0)"/>
      <use xlink:href="#DejaVuSans-70" transform="translate(840.185547 0)"/>
      <use xlink:href="#DejaVuSans-61" transform="translate(903.662109 0)"/>
      <use xlink:href="#DejaVuSans-6c" transform="translate(964.941406 0)"/>
      <use xlink:href="#DejaVuSans-20" transform="translate(992.724609 0)"/>
      <use xlink:href="#DejaVuSans-63" transform="translate(1024.511719 0)"/>
      <use xlink:href="#DejaVuSans-6f" transform="translate(1079.492188 0)"/>
      <use xlink:href="#DejaVuSans-6d" transform="translate(1140.673828 0)"/>
      <use xlink:href="#DejaVuSans-70" transform="translate(1238.085938 0)"/>
      <use xlink:href="#DejaVuSans-6f" transform="translate(1301.5625 0)"/>
      <use xlink:href="#DejaVuSans-6e" transform="translate(1362.744141 0)"/>
      <use xlink:href="#DejaVuSans-65" transform="translate(1426.123047 0)"/>
      <use xlink:href="#DejaVuSans-6e" transform="translate(1487.646484 0)"/>
      <use xlink:href="#DejaVuSans-74" transform="translate(1551.025391 0)"/>
      <use xlink:href="#DejaVuSans-73" transform="translate(1590.234375 0)"/>
     </g>
    </g>
   </g>
   <g id="matplotlib.axis_2">
    <g id="ytick_1">
     <g id="text_13">
      <!-- 0.00 -->
      <g style="fill: #262626" transform="translate(26.685 366.355781) scale(0.14 -0.14)">
       <defs>
        <path id="DejaVuSans-2e" d="M 684 794 
L 1344 794 
L 1344 0 
L 684 0 
L 684 794 
z
" transform="scale(0.015625)"/>
       </defs>
       <use xlink:href="#DejaVuSans-30"/>
       <use xlink:href="#DejaVuSans-2e" transform="translate(63.623047 0)"/>
       <use xlink:href="#DejaVuSans-30" transform="translate(95.410156 0)"/>
       <use xlink:href="#DejaVuSans-30" transform="translate(159.033203 0)"/>
      </g>
     </g>
    </g>
    <g id="ytick_2">
     <g id="text_14">
      <!-- 0.20 -->
      <g style="fill: #262626" transform="translate(26.685 299.827781) scale(0.14 -0.14)">
       <use xlink:href="#DejaVuSans-30"/>
       <use xlink:href="#DejaVuSans-2e" transform="translate(63.623047 0)"/>
       <use xlink:href="#DejaVuSans-32" transform="translate(95.410156 0)"/>
       <use xlink:href="#DejaVuSans-30" transform="translate(159.033203 0)"/>
      </g>
     </g>
    </g>
    <g id="ytick_3">
     <g id="text_15">
      <!-- 0.40 -->
      <g style="fill: #262626" transform="translate(26.685 233.299781) scale(0.14 -0.14)">
       <use xlink:href="#DejaVuSans-30"/>
       <use xlink:href="#DejaVuSans-2e" transform="translate(63.623047 0)"/>
       <use xlink:href="#DejaVuSans-34" transform="translate(95.410156 0)"/>
       <use xlink:href="#DejaVuSans-30" transform="translate(159.033203 0)"/>
      </g>
     </g>
    </g>
    <g id="ytick_4">
     <g id="text_16">
      <!-- 0.60 -->
      <g style="fill: #262626" transform="translate(26.685 166.771781) scale(0.14 -0.14)">
       <defs>
        <path id="DejaVuSans-36" d="M 2113 2584 
Q 1688 2584 1439 2293 
Q 1191 2003 1191 1497 
Q 1191 994 1439 701 
Q 1688 409 2113 409 
Q 2538 409 2786 701 
Q 3034 994 3034 1497 
Q 3034 2003 2786 2293 
Q 2538 2584 2113 2584 
z
M 3366 4563 
L 3366 3988 
Q 3128 4100 2886 4159 
Q 2644 4219 2406 4219 
Q 1781 4219 1451 3797 
Q 1122 3375 1075 2522 
Q 1259 2794 1537 2939 
Q 1816 3084 2150 3084 
Q 2853 3084 3261 2657 
Q 3669 2231 3669 1497 
Q 3669 778 3244 343 
Q 2819 -91 2113 -91 
Q 1303 -91 875 529 
Q 447 1150 447 2328 
Q 447 3434 972 4092 
Q 1497 4750 2381 4750 
Q 2619 4750 2861 4703 
Q 3103 4656 3366 4563 
z
" transform="scale(0.015625)"/>
       </defs>
       <use xlink:href="#DejaVuSans-30"/>
       <use xlink:href="#DejaVuSans-2e" transform="translate(63.623047 0)"/>
       <use xlink:href="#DejaVuSans-36" transform="translate(95.410156 0)"/>
       <use xlink:href="#DejaVuSans-30" transform="translate(159.033203 0)"/>
      </g>
     </g>
    </g>
    <g id="ytick_5">
     <g id="text_17">
      <!-- 0.80 -->
      <g style="fill: #262626" transform="translate(26.685 100.243781) scale(0.14 -0.14)">
       <defs>
        <path id="DejaVuSans-38" d="M 2034 2216 
Q 1584 2216 1326 1975 
Q 1069 1734 1069 1313 
Q 1069 891 1326 650 
Q 1584 409 2034 409 
Q 2484 409 2743 651 
Q 3003 894 3003 1313 
Q 3003 1734 2745 1975 
Q 2488 2216 2034 2216 
z
M 1403 2484 
Q 997 2584 770 2862 
Q 544 3141 544 3541 
Q 544 4100 942 4425 
Q 1341 4750 2034 4750 
Q 2731 4750 3128 4425 
Q 3525 4100 3525 3541 
Q 3525 3141 3298 2862 
Q 3072 2584 2669 2484 
Q 3125 2378 3379 2068 
Q 3634 1759 3634 1313 
Q 3634 634 3220 271 
Q 2806 -91 2034 -91 
Q 1263 -91 848 271 
Q 434 634 434 1313 
Q 434 1759 690 2068 
Q 947 2378 1403 2484 
z
M 1172 3481 
Q 1172 3119 1398 2916 
Q 1625 2713 2034 2713 
Q 2441 2713 2670 2916 
Q 2900 3119 2900 3481 
Q 2900 3844 2670 4047 
Q 2441 4250 2034 4250 
Q 1625 4250 1398 4047 
Q 1172 3844 1172 3481 
z
" transform="scale(0.015625)"/>
       </defs>
       <use xlink:href="#DejaVuSans-30"/>
       <use xlink:href="#DejaVuSans-2e" transform="translate(63.623047 0)"/>
       <use xlink:href="#DejaVuSans-38" transform="translate(95.410156 0)"/>
       <use xlink:href="#DejaVuSans-30" transform="translate(159.033203 0)"/>
      </g>
     </g>
    </g>
    <g id="ytick_6">
     <g id="text_18">
      <!-- 0.95 -->
      <g style="fill: #262626" transform="translate(26.685 50.347781) scale(0.14 -0.14)">
       <defs>
        <path id="DejaVuSans-39" d="M 703 97 
L 703 672 
Q 941 559 1184 500 
Q 1428 441 1663 441 
Q 2288 441 2617 861 
Q 2947 1281 2994 2138 
Q 2813 1869 2534 1725 
Q 2256 1581 1919 1581 
Q 1219 1581 811 2004 
Q 403 2428 403 3163 
Q 403 3881 828 4315 
Q 1253 4750 1959 4750 
Q 2769 4750 3195 4129 
Q 3622 3509 3622 2328 
Q 3622 1225 3098 567 
Q 2575 -91 1691 -91 
Q 1453 -91 1209 -44 
Q 966 3 703 97 
z
M 1959 2075 
Q 2384 2075 2632 2365 
Q 2881 2656 2881 3163 
Q 2881 3666 2632 3958 
Q 2384 4250 1959 4250 
Q 1534 4250 1286 3958 
Q 1038 3666 1038 3163 
Q 1038 2656 1286 2365 
Q 1534 2075 1959 2075 
z
" transform="scale(0.015625)"/>
       </defs>
       <use xlink:href="#DejaVuSans-30"/>
       <use xlink:href="#DejaVuSans-2e" transform="translate(63.623047 0)"/>
       <use xlink:href="#DejaVuSans-39" transform="translate(95.410156 0)"/>
       <use xlink:href="#DejaVuSans-35" transform="translate(159.033203 0)"/>
      </g>
     </g>
    </g>
    <g id="ytick_7">
     <g id="text_19">
      <!-- 1.00 -->
      <g style="fill: #262626" transform="translate(26.685 33.715781) scale(0.14 -0.14)">
       <use xlink:href="#DejaVuSans-31"/>
       <use xlink:href="#DejaVuSans-2e" transform="translate(63.623047 0)"/>
       <use xlink:href="#DejaVuSans-30" transform="translate(95.410156 0)"/>
       <use xlink:href="#DejaVuSans-30" transform="translate(159.033203 0)"/>
      </g>
     </g>
    </g>
    <g id="text_20">
     <!-- Explained variance -->
     <g style="fill: #262626" transform="translate(19.3575 270.989375) rotate(-90) scale(0.16 -0.16)">
      <defs>
       <path id="DejaVuSans-45" d="M 628 4666 
L 3578 4666 
L 3578 4134 
L 1259 4134 
L 1259 2753 
L 3481 2753 
L 3481 2222 
L 1259 2222 
L 1259 531 
L 3634 531 
L 3634 0 
L 628 0 
L 628 4666 
z
" transform="scale(0.015625)"/>
       <path id="DejaVuSans-78" d="M 3513 3500 
L 2247 1797 
L 3578 0 
L 2900 0 
L 1881 1375 
L 863 0 
L 184 0 
L 1544 1831 
L 300 3500 
L 978 3500 
L 1906 2253 
L 2834 3500 
L 3513 3500 
z
" transform="scale(0.015625)"/>
       <path id="DejaVuSans-64" d="M 2906 2969 
L 2906 4863 
L 3481 4863 
L 3481 0 
L 2906 0 
L 2906 525 
Q 2725 213 2448 61 
Q 2172 -91 1784 -91 
Q 1150 -91 751 415 
Q 353 922 353 1747 
Q 353 2572 751 3078 
Q 1150 3584 1784 3584 
Q 2172 3584 2448 3432 
Q 2725 3281 2906 2969 
z
M 947 1747 
Q 947 1113 1208 752 
Q 1469 391 1925 391 
Q 2381 391 2643 752 
Q 2906 1113 2906 1747 
Q 2906 2381 2643 2742 
Q 2381 3103 1925 3103 
Q 1469 3103 1208 2742 
Q 947 2381 947 1747 
z
" transform="scale(0.015625)"/>
       <path id="DejaVuSans-76" d="M 191 3500 
L 800 3500 
L 1894 563 
L 2988 3500 
L 3597 3500 
L 2284 0 
L 1503 0 
L 191 3500 
z
" transform="scale(0.015625)"/>
      </defs>
      <use xlink:href="#DejaVuSans-45"/>
      <use xlink:href="#DejaVuSans-78" transform="translate(63.183594 0)"/>
      <use xlink:href="#DejaVuSans-70" transform="translate(122.363281 0)"/>
      <use xlink:href="#DejaVuSans-6c" transform="translate(185.839844 0)"/>
      <use xlink:href="#DejaVuSans-61" transform="translate(213.623047 0)"/>
      <use xlink:href="#DejaVuSans-69" transform="translate(274.902344 0)"/>
      <use xlink:href="#DejaVuSans-6e" transform="translate(302.685547 0)"/>
      <use xlink:href="#DejaVuSans-65" transform="translate(366.064453 0)"/>
      <use xlink:href="#DejaVuSans-64" transform="translate(427.587891 0)"/>
      <use xlink:href="#DejaVuSans-20" transform="translate(491.064453 0)"/>
      <use xlink:href="#DejaVuSans-76" transform="translate(522.851562 0)"/>
      <use xlink:href="#DejaVuSans-61" transform="translate(582.03125 0)"/>
      <use xlink:href="#DejaVuSans-72" transform="translate(643.310547 0)"/>
      <use xlink:href="#DejaVuSans-69" transform="translate(684.423828 0)"/>
      <use xlink:href="#DejaVuSans-61" transform="translate(712.207031 0)"/>
      <use xlink:href="#DejaVuSans-6e" transform="translate(773.486328 0)"/>
      <use xlink:href="#DejaVuSans-63" transform="translate(836.865234 0)"/>
      <use xlink:href="#DejaVuSans-65" transform="translate(891.845703 0)"/>
     </g>
    </g>
   </g>
   <g id="patch_3">
    <path d="M 59.500075 361.036875 
L 70.213675 361.036875 
L 70.213675 361.036875 
L 59.500075 361.036875 
z
" clip-path="url(#p078cbe8d62)" style="fill: #493a61; stroke: #ffffff; stroke-linejoin: miter"/>
   </g>
   <g id="patch_4">
    <path d="M 72.892075 361.036875 
L 83.605675 361.036875 
L 83.605675 303.120499 
L 72.892075 303.120499 
z
" clip-path="url(#p078cbe8d62)" style="fill: #493a61; stroke: #ffffff; stroke-linejoin: miter"/>
   </g>
   <g id="patch_5">
    <path d="M 86.284075 361.036875 
L 96.997675 361.036875 
L 96.997675 313.454095 
L 86.284075 313.454095 
z
" clip-path="url(#p078cbe8d62)" style="fill: #493a61; stroke: #ffffff; stroke-linejoin: miter"/>
   </g>
   <g id="patch_6">
    <path d="M 99.676075 361.036875 
L 110.389675 361.036875 
L 110.389675 332.815493 
L 99.676075 332.815493 
z
" clip-path="url(#p078cbe8d62)" style="fill: #493a61; stroke: #ffffff; stroke-linejoin: miter"/>
   </g>
   <g id="patch_7">
    <path d="M 113.068075 361.036875 
L 123.781675 361.036875 
L 123.781675 339.429548 
L 113.068075 339.429548 
z
" clip-path="url(#p078cbe8d62)" style="fill: #493a61; stroke: #ffffff; stroke-linejoin: miter"/>
   </g>
   <g id="patch_8">
    <path d="M 126.460075 361.036875 
L 137.173675 361.036875 
L 137.173675 341.096991 
L 126.460075 341.096991 
z
" clip-path="url(#p078cbe8d62)" style="fill: #493a61; stroke: #ffffff; stroke-linejoin: miter"/>
   </g>
   <g id="patch_9">
    <path d="M 139.852075 361.036875 
L 150.565675 361.036875 
L 150.565675 347.563558 
L 139.852075 347.563558 
z
" clip-path="url(#p078cbe8d62)" style="fill: #493a61; stroke: #ffffff; stroke-linejoin: miter"/>
   </g>
   <g id="patch_10">
    <path d="M 153.244075 361.036875 
L 163.957675 361.036875 
L 163.957675 348.208938 
L 153.244075 348.208938 
z
" clip-path="url(#p078cbe8d62)" style="fill: #493a61; stroke: #ffffff; stroke-linejoin: miter"/>
   </g>
   <g id="patch_11">
    <path d="M 166.636075 361.036875 
L 177.349675 361.036875 
L 177.349675 350.10616 
L 166.636075 350.10616 
z
" clip-path="url(#p078cbe8d62)" style="fill: #493a61; stroke: #ffffff; stroke-linejoin: miter"/>
   </g>
   <g id="patch_12">
    <path d="M 180.028075 361.036875 
L 190.741675 361.036875 
L 190.741675 351.323619 
L 180.028075 351.323619 
z
" clip-path="url(#p078cbe8d62)" style="fill: #493a61; stroke: #ffffff; stroke-linejoin: miter"/>
   </g>
   <g id="patch_13">
    <path d="M 193.420075 361.036875 
L 204.133675 361.036875 
L 204.133675 351.97539 
L 193.420075 351.97539 
z
" clip-path="url(#p078cbe8d62)" style="fill: #493a61; stroke: #ffffff; stroke-linejoin: miter"/>
   </g>
   <g id="patch_14">
    <path d="M 206.812075 361.036875 
L 217.525675 361.036875 
L 217.525675 354.155348 
L 206.812075 354.155348 
z
" clip-path="url(#p078cbe8d62)" style="fill: #493a61; stroke: #ffffff; stroke-linejoin: miter"/>
   </g>
   <g id="patch_15">
    <path d="M 220.204075 361.036875 
L 230.917675 361.036875 
L 230.917675 354.942248 
L 220.204075 354.942248 
z
" clip-path="url(#p078cbe8d62)" style="fill: #493a61; stroke: #ffffff; stroke-linejoin: miter"/>
   </g>
   <g id="patch_16">
    <path d="M 233.596075 361.036875 
L 244.309675 361.036875 
L 244.309675 355.25513 
L 233.596075 355.25513 
z
" clip-path="url(#p078cbe8d62)" style="fill: #493a61; stroke: #ffffff; stroke-linejoin: miter"/>
   </g>
   <g id="patch_17">
    <path d="M 246.988075 361.036875 
L 257.701675 361.036875 
L 257.701675 355.824427 
L 246.988075 355.824427 
z
" clip-path="url(#p078cbe8d62)" style="fill: #493a61; stroke: #ffffff; stroke-linejoin: miter"/>
   </g>
   <g id="patch_18">
    <path d="M 260.380075 361.036875 
L 271.093675 361.036875 
L 271.093675 356.131183 
L 260.380075 356.131183 
z
" clip-path="url(#p078cbe8d62)" style="fill: #493a61; stroke: #ffffff; stroke-linejoin: miter"/>
   </g>
   <g id="patch_19">
    <path d="M 273.772075 361.036875 
L 284.485675 361.036875 
L 284.485675 356.315544 
L 273.772075 356.315544 
z
" clip-path="url(#p078cbe8d62)" style="fill: #493a61; stroke: #ffffff; stroke-linejoin: miter"/>
   </g>
   <g id="patch_20">
    <path d="M 287.164075 361.036875 
L 297.877675 361.036875 
L 297.877675 356.729516 
L 287.164075 356.729516 
z
" clip-path="url(#p078cbe8d62)" style="fill: #493a61; stroke: #ffffff; stroke-linejoin: miter"/>
   </g>
   <g id="patch_21">
    <path d="M 300.556075 361.036875 
L 311.269675 361.036875 
L 311.269675 357.265884 
L 300.556075 357.265884 
z
" clip-path="url(#p078cbe8d62)" style="fill: #493a61; stroke: #ffffff; stroke-linejoin: miter"/>
   </g>
   <g id="patch_22">
    <path d="M 313.948075 361.036875 
L 324.661675 361.036875 
L 324.661675 357.291178 
L 313.948075 357.291178 
z
" clip-path="url(#p078cbe8d62)" style="fill: #493a61; stroke: #ffffff; stroke-linejoin: miter"/>
   </g>
   <g id="patch_23">
    <path d="M 327.340075 361.036875 
L 338.053675 361.036875 
L 338.053675 357.564086 
L 327.340075 357.564086 
z
" clip-path="url(#p078cbe8d62)" style="fill: #493a61; stroke: #ffffff; stroke-linejoin: miter"/>
   </g>
   <g id="patch_24">
    <path d="M 340.732075 361.036875 
L 351.445675 361.036875 
L 351.445675 357.721146 
L 340.732075 357.721146 
z
" clip-path="url(#p078cbe8d62)" style="fill: #493a61; stroke: #ffffff; stroke-linejoin: miter"/>
   </g>
   <g id="patch_25">
    <path d="M 354.124075 361.036875 
L 364.837675 361.036875 
L 364.837675 357.976727 
L 354.124075 357.976727 
z
" clip-path="url(#p078cbe8d62)" style="fill: #493a61; stroke: #ffffff; stroke-linejoin: miter"/>
   </g>
   <g id="patch_26">
    <path d="M 367.516075 361.036875 
L 378.229675 361.036875 
L 378.229675 358.143534 
L 367.516075 358.143534 
z
" clip-path="url(#p078cbe8d62)" style="fill: #493a61; stroke: #ffffff; stroke-linejoin: miter"/>
   </g>
   <g id="patch_27">
    <path d="M 380.908075 361.036875 
L 391.621675 361.036875 
L 391.621675 358.374224 
L 380.908075 358.374224 
z
" clip-path="url(#p078cbe8d62)" style="fill: #493a61; stroke: #ffffff; stroke-linejoin: miter"/>
   </g>
   <g id="patch_28">
    <path d="M 394.300075 361.036875 
L 405.013675 361.036875 
L 405.013675 358.479411 
L 394.300075 358.479411 
z
" clip-path="url(#p078cbe8d62)" style="fill: #493a61; stroke: #ffffff; stroke-linejoin: miter"/>
   </g>
   <g id="patch_29">
    <path d="M 407.692075 361.036875 
L 418.405675 361.036875 
L 418.405675 358.585347 
L 407.692075 358.585347 
z
" clip-path="url(#p078cbe8d62)" style="fill: #493a61; stroke: #ffffff; stroke-linejoin: miter"/>
   </g>
   <g id="patch_30">
    <path d="M 421.084075 361.036875 
L 431.797675 361.036875 
L 431.797675 358.670055 
L 421.084075 358.670055 
z
" clip-path="url(#p078cbe8d62)" style="fill: #493a61; stroke: #ffffff; stroke-linejoin: miter"/>
   </g>
   <g id="patch_31">
    <path d="M 434.476075 361.036875 
L 445.189675 361.036875 
L 445.189675 358.773239 
L 434.476075 358.773239 
z
" clip-path="url(#p078cbe8d62)" style="fill: #493a61; stroke: #ffffff; stroke-linejoin: miter"/>
   </g>
   <g id="patch_32">
    <path d="M 447.868075 361.036875 
L 458.581675 361.036875 
L 458.581675 358.91519 
L 447.868075 358.91519 
z
" clip-path="url(#p078cbe8d62)" style="fill: #493a61; stroke: #ffffff; stroke-linejoin: miter"/>
   </g>
   <g id="patch_33">
    <path d="M 461.260075 361.036875 
L 471.973675 361.036875 
L 471.973675 359.139286 
L 461.260075 359.139286 
z
" clip-path="url(#p078cbe8d62)" style="fill: #493a61; stroke: #ffffff; stroke-linejoin: miter"/>
   </g>
   <g id="patch_34">
    <path d="M 474.652075 361.036875 
L 485.365675 361.036875 
L 485.365675 359.21318 
L 474.652075 359.21318 
z
" clip-path="url(#p078cbe8d62)" style="fill: #493a61; stroke: #ffffff; stroke-linejoin: miter"/>
   </g>
   <g id="patch_35">
    <path d="M 488.044075 361.036875 
L 498.757675 361.036875 
L 498.757675 359.340015 
L 488.044075 359.340015 
z
" clip-path="url(#p078cbe8d62)" style="fill: #493a61; stroke: #ffffff; stroke-linejoin: miter"/>
   </g>
   <g id="patch_36">
    <path d="M 501.436075 361.036875 
L 512.149675 361.036875 
L 512.149675 359.471825 
L 501.436075 359.471825 
z
" clip-path="url(#p078cbe8d62)" style="fill: #493a61; stroke: #ffffff; stroke-linejoin: miter"/>
   </g>
   <g id="patch_37">
    <path d="M 514.828075 361.036875 
L 525.541675 361.036875 
L 525.541675 359.566578 
L 514.828075 359.566578 
z
" clip-path="url(#p078cbe8d62)" style="fill: #493a61; stroke: #ffffff; stroke-linejoin: miter"/>
   </g>
   <g id="patch_38">
    <path d="M 528.220075 361.036875 
L 538.933675 361.036875 
L 538.933675 359.593213 
L 528.220075 359.593213 
z
" clip-path="url(#p078cbe8d62)" style="fill: #493a61; stroke: #ffffff; stroke-linejoin: miter"/>
   </g>
   <g id="patch_39">
    <path d="M 541.612075 361.036875 
L 552.325675 361.036875 
L 552.325675 359.795856 
L 541.612075 359.795856 
z
" clip-path="url(#p078cbe8d62)" style="fill: #493a61; stroke: #ffffff; stroke-linejoin: miter"/>
   </g>
   <g id="patch_40">
    <path d="M 555.004075 361.036875 
L 565.717675 361.036875 
L 565.717675 359.832013 
L 555.004075 359.832013 
z
" clip-path="url(#p078cbe8d62)" style="fill: #493a61; stroke: #ffffff; stroke-linejoin: miter"/>
   </g>
   <g id="patch_41">
    <path d="M 568.396075 361.036875 
L 579.109675 361.036875 
L 579.109675 359.937951 
L 568.396075 359.937951 
z
" clip-path="url(#p078cbe8d62)" style="fill: #493a61; stroke: #ffffff; stroke-linejoin: miter"/>
   </g>
   <g id="patch_42">
    <path d="M 581.788075 361.036875 
L 592.501675 361.036875 
L 592.501675 359.974824 
L 581.788075 359.974824 
z
" clip-path="url(#p078cbe8d62)" style="fill: #493a61; stroke: #ffffff; stroke-linejoin: miter"/>
   </g>
   <g id="patch_43">
    <path d="M 595.180075 361.036875 
L 605.893675 361.036875 
L 605.893675 360.015666 
L 595.180075 360.015666 
z
" clip-path="url(#p078cbe8d62)" style="fill: #493a61; stroke: #ffffff; stroke-linejoin: miter"/>
   </g>
   <g id="patch_44">
    <path d="M 608.572075 361.036875 
L 619.285675 361.036875 
L 619.285675 360.073347 
L 608.572075 360.073347 
z
" clip-path="url(#p078cbe8d62)" style="fill: #493a61; stroke: #ffffff; stroke-linejoin: miter"/>
   </g>
   <g id="patch_45">
    <path d="M 621.964075 361.036875 
L 632.677675 361.036875 
L 632.677675 360.089006 
L 621.964075 360.089006 
z
" clip-path="url(#p078cbe8d62)" style="fill: #493a61; stroke: #ffffff; stroke-linejoin: miter"/>
   </g>
   <g id="patch_46">
    <path d="M 635.356075 361.036875 
L 646.069675 361.036875 
L 646.069675 360.162035 
L 635.356075 360.162035 
z
" clip-path="url(#p078cbe8d62)" style="fill: #493a61; stroke: #ffffff; stroke-linejoin: miter"/>
   </g>
   <g id="patch_47">
    <path d="M 648.748075 361.036875 
L 659.461675 361.036875 
L 659.461675 360.201823 
L 648.748075 360.201823 
z
" clip-path="url(#p078cbe8d62)" style="fill: #493a61; stroke: #ffffff; stroke-linejoin: miter"/>
   </g>
   <g id="patch_48">
    <path d="M 662.140075 361.036875 
L 672.853675 361.036875 
L 672.853675 360.242146 
L 662.140075 360.242146 
z
" clip-path="url(#p078cbe8d62)" style="fill: #493a61; stroke: #ffffff; stroke-linejoin: miter"/>
   </g>
   <g id="patch_49">
    <path d="M 675.532075 361.036875 
L 686.245675 361.036875 
L 686.245675 360.29689 
L 675.532075 360.29689 
z
" clip-path="url(#p078cbe8d62)" style="fill: #493a61; stroke: #ffffff; stroke-linejoin: miter"/>
   </g>
   <g id="patch_50">
    <path d="M 688.924075 361.036875 
L 699.637675 361.036875 
L 699.637675 360.334354 
L 688.924075 360.334354 
z
" clip-path="url(#p078cbe8d62)" style="fill: #493a61; stroke: #ffffff; stroke-linejoin: miter"/>
   </g>
   <g id="patch_51">
    <path d="M 702.316075 361.036875 
L 713.029675 361.036875 
L 713.029675 360.376951 
L 702.316075 360.376951 
z
" clip-path="url(#p078cbe8d62)" style="fill: #493a61; stroke: #ffffff; stroke-linejoin: miter"/>
   </g>
   <g id="patch_52">
    <path d="M 715.708075 361.036875 
L 726.421675 361.036875 
L 726.421675 360.422077 
L 715.708075 360.422077 
z
" clip-path="url(#p078cbe8d62)" style="fill: #493a61; stroke: #ffffff; stroke-linejoin: miter"/>
   </g>
   <g id="patch_53">
    <path d="M 729.100075 361.036875 
L 739.813675 361.036875 
L 739.813675 360.430313 
L 729.100075 360.430313 
z
" clip-path="url(#p078cbe8d62)" style="fill: #493a61; stroke: #ffffff; stroke-linejoin: miter"/>
   </g>
   <g id="line2d_1">
    <path clip-path="url(#p078cbe8d62)" style="fill: none; stroke: #424242; stroke-width: 2.25; stroke-linecap: round"/>
   </g>
   <g id="line2d_2">
    <path clip-path="url(#p078cbe8d62)" style="fill: none; stroke: #424242; stroke-width: 2.25; stroke-linecap: round"/>
   </g>
   <g id="line2d_3">
    <path clip-path="url(#p078cbe8d62)" style="fill: none; stroke: #424242; stroke-width: 2.25; stroke-linecap: round"/>
   </g>
   <g id="line2d_4">
    <path clip-path="url(#p078cbe8d62)" style="fill: none; stroke: #424242; stroke-width: 2.25; stroke-linecap: round"/>
   </g>
   <g id="line2d_5">
    <path clip-path="url(#p078cbe8d62)" style="fill: none; stroke: #424242; stroke-width: 2.25; stroke-linecap: round"/>
   </g>
   <g id="line2d_6">
    <path clip-path="url(#p078cbe8d62)" style="fill: none; stroke: #424242; stroke-width: 2.25; stroke-linecap: round"/>
   </g>
   <g id="line2d_7">
    <path clip-path="url(#p078cbe8d62)" style="fill: none; stroke: #424242; stroke-width: 2.25; stroke-linecap: round"/>
   </g>
   <g id="line2d_8">
    <path clip-path="url(#p078cbe8d62)" style="fill: none; stroke: #424242; stroke-width: 2.25; stroke-linecap: round"/>
   </g>
   <g id="line2d_9">
    <path clip-path="url(#p078cbe8d62)" style="fill: none; stroke: #424242; stroke-width: 2.25; stroke-linecap: round"/>
   </g>
   <g id="line2d_10">
    <path clip-path="url(#p078cbe8d62)" style="fill: none; stroke: #424242; stroke-width: 2.25; stroke-linecap: round"/>
   </g>
   <g id="line2d_11">
    <path clip-path="url(#p078cbe8d62)" style="fill: none; stroke: #424242; stroke-width: 2.25; stroke-linecap: round"/>
   </g>
   <g id="line2d_12">
    <path clip-path="url(#p078cbe8d62)" style="fill: none; stroke: #424242; stroke-width: 2.25; stroke-linecap: round"/>
   </g>
   <g id="line2d_13">
    <path clip-path="url(#p078cbe8d62)" style="fill: none; stroke: #424242; stroke-width: 2.25; stroke-linecap: round"/>
   </g>
   <g id="line2d_14">
    <path clip-path="url(#p078cbe8d62)" style="fill: none; stroke: #424242; stroke-width: 2.25; stroke-linecap: round"/>
   </g>
   <g id="line2d_15">
    <path clip-path="url(#p078cbe8d62)" style="fill: none; stroke: #424242; stroke-width: 2.25; stroke-linecap: round"/>
   </g>
   <g id="line2d_16">
    <path clip-path="url(#p078cbe8d62)" style="fill: none; stroke: #424242; stroke-width: 2.25; stroke-linecap: round"/>
   </g>
   <g id="line2d_17">
    <path clip-path="url(#p078cbe8d62)" style="fill: none; stroke: #424242; stroke-width: 2.25; stroke-linecap: round"/>
   </g>
   <g id="line2d_18">
    <path clip-path="url(#p078cbe8d62)" style="fill: none; stroke: #424242; stroke-width: 2.25; stroke-linecap: round"/>
   </g>
   <g id="line2d_19">
    <path clip-path="url(#p078cbe8d62)" style="fill: none; stroke: #424242; stroke-width: 2.25; stroke-linecap: round"/>
   </g>
   <g id="line2d_20">
    <path clip-path="url(#p078cbe8d62)" style="fill: none; stroke: #424242; stroke-width: 2.25; stroke-linecap: round"/>
   </g>
   <g id="line2d_21">
    <path clip-path="url(#p078cbe8d62)" style="fill: none; stroke: #424242; stroke-width: 2.25; stroke-linecap: round"/>
   </g>
   <g id="line2d_22">
    <path clip-path="url(#p078cbe8d62)" style="fill: none; stroke: #424242; stroke-width: 2.25; stroke-linecap: round"/>
   </g>
   <g id="line2d_23">
    <path clip-path="url(#p078cbe8d62)" style="fill: none; stroke: #424242; stroke-width: 2.25; stroke-linecap: round"/>
   </g>
   <g id="line2d_24">
    <path clip-path="url(#p078cbe8d62)" style="fill: none; stroke: #424242; stroke-width: 2.25; stroke-linecap: round"/>
   </g>
   <g id="line2d_25">
    <path clip-path="url(#p078cbe8d62)" style="fill: none; stroke: #424242; stroke-width: 2.25; stroke-linecap: round"/>
   </g>
   <g id="line2d_26">
    <path clip-path="url(#p078cbe8d62)" style="fill: none; stroke: #424242; stroke-width: 2.25; stroke-linecap: round"/>
   </g>
   <g id="line2d_27">
    <path clip-path="url(#p078cbe8d62)" style="fill: none; stroke: #424242; stroke-width: 2.25; stroke-linecap: round"/>
   </g>
   <g id="line2d_28">
    <path clip-path="url(#p078cbe8d62)" style="fill: none; stroke: #424242; stroke-width: 2.25; stroke-linecap: round"/>
   </g>
   <g id="line2d_29">
    <path clip-path="url(#p078cbe8d62)" style="fill: none; stroke: #424242; stroke-width: 2.25; stroke-linecap: round"/>
   </g>
   <g id="line2d_30">
    <path clip-path="url(#p078cbe8d62)" style="fill: none; stroke: #424242; stroke-width: 2.25; stroke-linecap: round"/>
   </g>
   <g id="line2d_31">
    <path clip-path="url(#p078cbe8d62)" style="fill: none; stroke: #424242; stroke-width: 2.25; stroke-linecap: round"/>
   </g>
   <g id="line2d_32">
    <path clip-path="url(#p078cbe8d62)" style="fill: none; stroke: #424242; stroke-width: 2.25; stroke-linecap: round"/>
   </g>
   <g id="line2d_33">
    <path clip-path="url(#p078cbe8d62)" style="fill: none; stroke: #424242; stroke-width: 2.25; stroke-linecap: round"/>
   </g>
   <g id="line2d_34">
    <path clip-path="url(#p078cbe8d62)" style="fill: none; stroke: #424242; stroke-width: 2.25; stroke-linecap: round"/>
   </g>
   <g id="line2d_35">
    <path clip-path="url(#p078cbe8d62)" style="fill: none; stroke: #424242; stroke-width: 2.25; stroke-linecap: round"/>
   </g>
   <g id="line2d_36">
    <path clip-path="url(#p078cbe8d62)" style="fill: none; stroke: #424242; stroke-width: 2.25; stroke-linecap: round"/>
   </g>
   <g id="line2d_37">
    <path clip-path="url(#p078cbe8d62)" style="fill: none; stroke: #424242; stroke-width: 2.25; stroke-linecap: round"/>
   </g>
   <g id="line2d_38">
    <path clip-path="url(#p078cbe8d62)" style="fill: none; stroke: #424242; stroke-width: 2.25; stroke-linecap: round"/>
   </g>
   <g id="line2d_39">
    <path clip-path="url(#p078cbe8d62)" style="fill: none; stroke: #424242; stroke-width: 2.25; stroke-linecap: round"/>
   </g>
   <g id="line2d_40">
    <path clip-path="url(#p078cbe8d62)" style="fill: none; stroke: #424242; stroke-width: 2.25; stroke-linecap: round"/>
   </g>
   <g id="line2d_41">
    <path clip-path="url(#p078cbe8d62)" style="fill: none; stroke: #424242; stroke-width: 2.25; stroke-linecap: round"/>
   </g>
   <g id="line2d_42">
    <path clip-path="url(#p078cbe8d62)" style="fill: none; stroke: #424242; stroke-width: 2.25; stroke-linecap: round"/>
   </g>
   <g id="line2d_43">
    <path clip-path="url(#p078cbe8d62)" style="fill: none; stroke: #424242; stroke-width: 2.25; stroke-linecap: round"/>
   </g>
   <g id="line2d_44">
    <path clip-path="url(#p078cbe8d62)" style="fill: none; stroke: #424242; stroke-width: 2.25; stroke-linecap: round"/>
   </g>
   <g id="line2d_45">
    <path clip-path="url(#p078cbe8d62)" style="fill: none; stroke: #424242; stroke-width: 2.25; stroke-linecap: round"/>
   </g>
   <g id="line2d_46">
    <path clip-path="url(#p078cbe8d62)" style="fill: none; stroke: #424242; stroke-width: 2.25; stroke-linecap: round"/>
   </g>
   <g id="line2d_47">
    <path clip-path="url(#p078cbe8d62)" style="fill: none; stroke: #424242; stroke-width: 2.25; stroke-linecap: round"/>
   </g>
   <g id="line2d_48">
    <path clip-path="url(#p078cbe8d62)" style="fill: none; stroke: #424242; stroke-width: 2.25; stroke-linecap: round"/>
   </g>
   <g id="line2d_49">
    <path clip-path="url(#p078cbe8d62)" style="fill: none; stroke: #424242; stroke-width: 2.25; stroke-linecap: round"/>
   </g>
   <g id="line2d_50">
    <path clip-path="url(#p078cbe8d62)" style="fill: none; stroke: #424242; stroke-width: 2.25; stroke-linecap: round"/>
   </g>
   <g id="line2d_51">
    <path clip-path="url(#p078cbe8d62)" style="fill: none; stroke: #424242; stroke-width: 2.25; stroke-linecap: round"/>
   </g>
   <g id="line2d_52">
    <path d="M 64.856875 361.036875 
L 78.248875 303.120499 
L 91.640875 255.537719 
L 105.032875 227.316337 
L 118.424875 205.70901 
L 131.816875 185.769126 
L 145.208875 172.295808 
L 158.600875 159.467871 
L 171.992875 148.537156 
L 185.384875 138.8239 
L 198.776875 129.762415 
L 212.168875 122.880888 
L 225.560875 116.786261 
L 238.952875 111.004517 
L 252.344875 105.792069 
L 265.736875 100.886377 
L 279.128875 96.165046 
L 292.520875 91.857688 
L 305.912875 88.086696 
L 319.304875 84.341 
L 332.696875 80.86821 
L 346.088875 77.552482 
L 359.480875 74.492334 
L 372.872875 71.598993 
L 386.264875 68.936342 
L 399.656875 66.378878 
L 413.048875 63.92735 
L 426.440875 61.560531 
L 439.832875 59.296894 
L 453.224875 57.17521 
L 466.616875 55.277621 
L 480.008875 53.453926 
L 493.400875 51.757065 
L 506.792875 50.192015 
L 520.184875 48.721718 
L 533.576875 47.278056 
L 546.968875 46.037037 
L 560.360875 44.832175 
L 573.752875 43.733251 
L 587.144875 42.6712 
L 600.536875 41.649992 
L 613.928875 40.686464 
L 627.320875 39.738595 
L 640.712875 38.863755 
L 654.104875 38.028703 
L 667.496875 37.233974 
L 680.888875 36.49399 
L 694.280875 35.791469 
L 707.672875 35.131545 
L 721.064875 34.516747 
L 734.456875 33.910186 
" clip-path="url(#p078cbe8d62)" style="fill: none; stroke: #8f004f; stroke-width: 1.5; stroke-linecap: round"/>
    <defs>
     <path id="me2cc475192" d="M 0 1 
C 0.265203 1 0.51958 0.894634 0.707107 0.707107 
C 0.894634 0.51958 1 0.265203 1 0 
C 1 -0.265203 0.894634 -0.51958 0.707107 -0.707107 
C 0.51958 -0.894634 0.265203 -1 0 -1 
C -0.265203 -1 -0.51958 -0.894634 -0.707107 -0.707107 
C -0.894634 -0.51958 -1 -0.265203 -1 0 
C -1 0.265203 -0.894634 0.51958 -0.707107 0.707107 
C -0.51958 0.894634 -0.265203 1 0 1 
z
" style="stroke: #8f004f"/>
    </defs>
    <g clip-path="url(#p078cbe8d62)">
     <use xlink:href="#me2cc475192" x="64.856875" y="361.036875" style="fill: #8f004f; stroke: #8f004f"/>
     <use xlink:href="#me2cc475192" x="78.248875" y="303.120499" style="fill: #8f004f; stroke: #8f004f"/>
     <use xlink:href="#me2cc475192" x="91.640875" y="255.537719" style="fill: #8f004f; stroke: #8f004f"/>
     <use xlink:href="#me2cc475192" x="105.032875" y="227.316337" style="fill: #8f004f; stroke: #8f004f"/>
     <use xlink:href="#me2cc475192" x="118.424875" y="205.70901" style="fill: #8f004f; stroke: #8f004f"/>
     <use xlink:href="#me2cc475192" x="131.816875" y="185.769126" style="fill: #8f004f; stroke: #8f004f"/>
     <use xlink:href="#me2cc475192" x="145.208875" y="172.295808" style="fill: #8f004f; stroke: #8f004f"/>
     <use xlink:href="#me2cc475192" x="158.600875" y="159.467871" style="fill: #8f004f; stroke: #8f004f"/>
     <use xlink:href="#me2cc475192" x="171.992875" y="148.537156" style="fill: #8f004f; stroke: #8f004f"/>
     <use xlink:href="#me2cc475192" x="185.384875" y="138.8239" style="fill: #8f004f; stroke: #8f004f"/>
     <use xlink:href="#me2cc475192" x="198.776875" y="129.762415" style="fill: #8f004f; stroke: #8f004f"/>
     <use xlink:href="#me2cc475192" x="212.168875" y="122.880888" style="fill: #8f004f; stroke: #8f004f"/>
     <use xlink:href="#me2cc475192" x="225.560875" y="116.786261" style="fill: #8f004f; stroke: #8f004f"/>
     <use xlink:href="#me2cc475192" x="238.952875" y="111.004517" style="fill: #8f004f; stroke: #8f004f"/>
     <use xlink:href="#me2cc475192" x="252.344875" y="105.792069" style="fill: #8f004f; stroke: #8f004f"/>
     <use xlink:href="#me2cc475192" x="265.736875" y="100.886377" style="fill: #8f004f; stroke: #8f004f"/>
     <use xlink:href="#me2cc475192" x="279.128875" y="96.165046" style="fill: #8f004f; stroke: #8f004f"/>
     <use xlink:href="#me2cc475192" x="292.520875" y="91.857688" style="fill: #8f004f; stroke: #8f004f"/>
     <use xlink:href="#me2cc475192" x="305.912875" y="88.086696" style="fill: #8f004f; stroke: #8f004f"/>
     <use xlink:href="#me2cc475192" x="319.304875" y="84.341" style="fill: #8f004f; stroke: #8f004f"/>
     <use xlink:href="#me2cc475192" x="332.696875" y="80.86821" style="fill: #8f004f; stroke: #8f004f"/>
     <use xlink:href="#me2cc475192" x="346.088875" y="77.552482" style="fill: #8f004f; stroke: #8f004f"/>
     <use xlink:href="#me2cc475192" x="359.480875" y="74.492334" style="fill: #8f004f; stroke: #8f004f"/>
     <use xlink:href="#me2cc475192" x="372.872875" y="71.598993" style="fill: #8f004f; stroke: #8f004f"/>
     <use xlink:href="#me2cc475192" x="386.264875" y="68.936342" style="fill: #8f004f; stroke: #8f004f"/>
     <use xlink:href="#me2cc475192" x="399.656875" y="66.378878" style="fill: #8f004f; stroke: #8f004f"/>
     <use xlink:href="#me2cc475192" x="413.048875" y="63.92735" style="fill: #8f004f; stroke: #8f004f"/>
     <use xlink:href="#me2cc475192" x="426.440875" y="61.560531" style="fill: #8f004f; stroke: #8f004f"/>
     <use xlink:href="#me2cc475192" x="439.832875" y="59.296894" style="fill: #8f004f; stroke: #8f004f"/>
     <use xlink:href="#me2cc475192" x="453.224875" y="57.17521" style="fill: #8f004f; stroke: #8f004f"/>
     <use xlink:href="#me2cc475192" x="466.616875" y="55.277621" style="fill: #8f004f; stroke: #8f004f"/>
     <use xlink:href="#me2cc475192" x="480.008875" y="53.453926" style="fill: #8f004f; stroke: #8f004f"/>
     <use xlink:href="#me2cc475192" x="493.400875" y="51.757065" style="fill: #8f004f; stroke: #8f004f"/>
     <use xlink:href="#me2cc475192" x="506.792875" y="50.192015" style="fill: #8f004f; stroke: #8f004f"/>
     <use xlink:href="#me2cc475192" x="520.184875" y="48.721718" style="fill: #8f004f; stroke: #8f004f"/>
     <use xlink:href="#me2cc475192" x="533.576875" y="47.278056" style="fill: #8f004f; stroke: #8f004f"/>
     <use xlink:href="#me2cc475192" x="546.968875" y="46.037037" style="fill: #8f004f; stroke: #8f004f"/>
     <use xlink:href="#me2cc475192" x="560.360875" y="44.832175" style="fill: #8f004f; stroke: #8f004f"/>
     <use xlink:href="#me2cc475192" x="573.752875" y="43.733251" style="fill: #8f004f; stroke: #8f004f"/>
     <use xlink:href="#me2cc475192" x="587.144875" y="42.6712" style="fill: #8f004f; stroke: #8f004f"/>
     <use xlink:href="#me2cc475192" x="600.536875" y="41.649992" style="fill: #8f004f; stroke: #8f004f"/>
     <use xlink:href="#me2cc475192" x="613.928875" y="40.686464" style="fill: #8f004f; stroke: #8f004f"/>
     <use xlink:href="#me2cc475192" x="627.320875" y="39.738595" style="fill: #8f004f; stroke: #8f004f"/>
     <use xlink:href="#me2cc475192" x="640.712875" y="38.863755" style="fill: #8f004f; stroke: #8f004f"/>
     <use xlink:href="#me2cc475192" x="654.104875" y="38.028703" style="fill: #8f004f; stroke: #8f004f"/>
     <use xlink:href="#me2cc475192" x="667.496875" y="37.233974" style="fill: #8f004f; stroke: #8f004f"/>
     <use xlink:href="#me2cc475192" x="680.888875" y="36.49399" style="fill: #8f004f; stroke: #8f004f"/>
     <use xlink:href="#me2cc475192" x="694.280875" y="35.791469" style="fill: #8f004f; stroke: #8f004f"/>
     <use xlink:href="#me2cc475192" x="707.672875" y="35.131545" style="fill: #8f004f; stroke: #8f004f"/>
     <use xlink:href="#me2cc475192" x="721.064875" y="34.516747" style="fill: #8f004f; stroke: #8f004f"/>
     <use xlink:href="#me2cc475192" x="734.456875" y="33.910186" style="fill: #8f004f; stroke: #8f004f"/>
    </g>
   </g>
   <g id="patch_54">
    <path d="M 64.856875 361.036875 
L 64.856875 28.396875 
" style="fill: none; stroke: #262626; stroke-width: 1.5; stroke-linejoin: miter; stroke-linecap: square"/>
   </g>
   <g id="patch_55">
    <path d="M 734.456875 361.036875 
L 734.456875 28.396875 
" style="fill: none; stroke: #262626; stroke-width: 1.5; stroke-linejoin: miter; stroke-linecap: square"/>
   </g>
   <g id="patch_56">
    <path d="M 64.856875 361.036875 
L 734.456875 361.036875 
" style="fill: none; stroke: #262626; stroke-width: 1.5; stroke-linejoin: miter; stroke-linecap: square"/>
   </g>
   <g id="patch_57">
    <path d="M 64.856875 28.396875 
L 734.456875 28.396875 
" style="fill: none; stroke: #262626; stroke-width: 1.5; stroke-linejoin: miter; stroke-linecap: square"/>
   </g>
   <g id="text_21">
    <!-- Principal Component Analysis -->
    <g style="fill: #262626" transform="translate(251.430313 22.396875) scale(0.2 -0.2)">
     <defs>
      <path id="DejaVuSans-50" d="M 1259 4147 
L 1259 2394 
L 2053 2394 
Q 2494 2394 2734 2622 
Q 2975 2850 2975 3272 
Q 2975 3691 2734 3919 
Q 2494 4147 2053 4147 
L 1259 4147 
z
M 628 4666 
L 2053 4666 
Q 2838 4666 3239 4311 
Q 3641 3956 3641 3272 
Q 3641 2581 3239 2228 
Q 2838 1875 2053 1875 
L 1259 1875 
L 1259 0 
L 628 0 
L 628 4666 
z
" transform="scale(0.015625)"/>
      <path id="DejaVuSans-43" d="M 4122 4306 
L 4122 3641 
Q 3803 3938 3442 4084 
Q 3081 4231 2675 4231 
Q 1875 4231 1450 3742 
Q 1025 3253 1025 2328 
Q 1025 1406 1450 917 
Q 1875 428 2675 428 
Q 3081 428 3442 575 
Q 3803 722 4122 1019 
L 4122 359 
Q 3791 134 3420 21 
Q 3050 -91 2638 -91 
Q 1578 -91 968 557 
Q 359 1206 359 2328 
Q 359 3453 968 4101 
Q 1578 4750 2638 4750 
Q 3056 4750 3426 4639 
Q 3797 4528 4122 4306 
z
" transform="scale(0.015625)"/>
      <path id="DejaVuSans-41" d="M 2188 4044 
L 1331 1722 
L 3047 1722 
L 2188 4044 
z
M 1831 4666 
L 2547 4666 
L 4325 0 
L 3669 0 
L 3244 1197 
L 1141 1197 
L 716 0 
L 50 0 
L 1831 4666 
z
" transform="scale(0.015625)"/>
      <path id="DejaVuSans-79" d="M 2059 -325 
Q 1816 -950 1584 -1140 
Q 1353 -1331 966 -1331 
L 506 -1331 
L 506 -850 
L 844 -850 
Q 1081 -850 1212 -737 
Q 1344 -625 1503 -206 
L 1606 56 
L 191 3500 
L 800 3500 
L 1894 763 
L 2988 3500 
L 3597 3500 
L 2059 -325 
z
" transform="scale(0.015625)"/>
     </defs>
     <use xlink:href="#DejaVuSans-50"/>
     <use xlink:href="#DejaVuSans-72" transform="translate(58.552734 0)"/>
     <use xlink:href="#DejaVuSans-69" transform="translate(99.666016 0)"/>
     <use xlink:href="#DejaVuSans-6e" transform="translate(127.449219 0)"/>
     <use xlink:href="#DejaVuSans-63" transform="translate(190.828125 0)"/>
     <use xlink:href="#DejaVuSans-69" transform="translate(245.808594 0)"/>
     <use xlink:href="#DejaVuSans-70" transform="translate(273.591797 0)"/>
     <use xlink:href="#DejaVuSans-61" transform="translate(337.068359 0)"/>
     <use xlink:href="#DejaVuSans-6c" transform="translate(398.347656 0)"/>
     <use xlink:href="#DejaVuSans-20" transform="translate(426.130859 0)"/>
     <use xlink:href="#DejaVuSans-43" transform="translate(457.917969 0)"/>
     <use xlink:href="#DejaVuSans-6f" transform="translate(527.742188 0)"/>
     <use xlink:href="#DejaVuSans-6d" transform="translate(588.923828 0)"/>
     <use xlink:href="#DejaVuSans-70" transform="translate(686.335938 0)"/>
     <use xlink:href="#DejaVuSans-6f" transform="translate(749.8125 0)"/>
     <use xlink:href="#DejaVuSans-6e" transform="translate(810.994141 0)"/>
     <use xlink:href="#DejaVuSans-65" transform="translate(874.373047 0)"/>
     <use xlink:href="#DejaVuSans-6e" transform="translate(935.896484 0)"/>
     <use xlink:href="#DejaVuSans-74" transform="translate(999.275391 0)"/>
     <use xlink:href="#DejaVuSans-20" transform="translate(1038.484375 0)"/>
     <use xlink:href="#DejaVuSans-41" transform="translate(1070.271484 0)"/>
     <use xlink:href="#DejaVuSans-6e" transform="translate(1138.679688 0)"/>
     <use xlink:href="#DejaVuSans-61" transform="translate(1202.058594 0)"/>
     <use xlink:href="#DejaVuSans-6c" transform="translate(1263.337891 0)"/>
     <use xlink:href="#DejaVuSans-79" transform="translate(1291.121094 0)"/>
     <use xlink:href="#DejaVuSans-73" transform="translate(1350.300781 0)"/>
     <use xlink:href="#DejaVuSans-69" transform="translate(1402.400391 0)"/>
     <use xlink:href="#DejaVuSans-73" transform="translate(1430.183594 0)"/>
    </g>
   </g>
   <g id="legend_1">
    <g id="patch_58">
     <path d="M 73.204125 75.11505 
L 262.632875 75.11505 
Q 265.432875 75.11505 265.432875 72.31505 
L 265.432875 53.165675 
Q 265.432875 50.365675 262.632875 50.365675 
L 73.204125 50.365675 
Q 70.404125 50.365675 70.404125 53.165675 
L 70.404125 72.31505 
Q 70.404125 75.11505 73.204125 75.11505 
z
" style="fill: #ffffff; opacity: 0.8; stroke: #cccccc; stroke-linejoin: miter"/>
    </g>
    <g id="line2d_53">
     <path d="M 76.004125 61.703487 
L 90.004125 61.703487 
L 104.004125 61.703487 
" style="fill: none; stroke: #8f004f; stroke-width: 1.5; stroke-linecap: round"/>
     <g>
      <use xlink:href="#me2cc475192" x="90.004125" y="61.703487" style="fill: #8f004f; stroke: #8f004f"/>
     </g>
    </g>
    <g id="text_22">
     <!-- Cumulative variance -->
     <g style="fill: #262626" transform="translate(115.204125 66.603487) scale(0.14 -0.14)">
      <use xlink:href="#DejaVuSans-43"/>
      <use xlink:href="#DejaVuSans-75" transform="translate(69.824219 0)"/>
      <use xlink:href="#DejaVuSans-6d" transform="translate(133.203125 0)"/>
      <use xlink:href="#DejaVuSans-75" transform="translate(230.615234 0)"/>
      <use xlink:href="#DejaVuSans-6c" transform="translate(293.994141 0)"/>
      <use xlink:href="#DejaVuSans-61" transform="translate(321.777344 0)"/>
      <use xlink:href="#DejaVuSans-74" transform="translate(383.056641 0)"/>
      <use xlink:href="#DejaVuSans-69" transform="translate(422.265625 0)"/>
      <use xlink:href="#DejaVuSans-76" transform="translate(450.048828 0)"/>
      <use xlink:href="#DejaVuSans-65" transform="translate(509.228516 0)"/>
      <use xlink:href="#DejaVuSans-20" transform="translate(570.751953 0)"/>
      <use xlink:href="#DejaVuSans-76" transform="translate(602.539062 0)"/>
      <use xlink:href="#DejaVuSans-61" transform="translate(661.71875 0)"/>
      <use xlink:href="#DejaVuSans-72" transform="translate(722.998047 0)"/>
      <use xlink:href="#DejaVuSans-69" transform="translate(764.111328 0)"/>
      <use xlink:href="#DejaVuSans-61" transform="translate(791.894531 0)"/>
      <use xlink:href="#DejaVuSans-6e" transform="translate(853.173828 0)"/>
      <use xlink:href="#DejaVuSans-63" transform="translate(916.552734 0)"/>
      <use xlink:href="#DejaVuSans-65" transform="translate(971.533203 0)"/>
     </g>
    </g>
   </g>
  </g>
 </g>
 <defs>
  <clipPath id="p078cbe8d62">
   <rect x="64.856875" y="28.396875" width="669.6" height="332.64"/>
  </clipPath>
 </defs>
</svg>
